{
	"accessors" : 
	[
		{
			"bufferView" : 2,
			"byteOffset" : 0,
			"componentType" : 5126,
			"count" : 11355,
			"max" : 
			[
				1,
				1,
				1,
				1
			],
			"min" : 
			[
				0,
				0.006584956776350737,
				0,
				1
			],
			"name" : "accessor_color_m0-PolyPaper21_-686262",
			"type" : "VEC4"
		},
		{
			"bufferView" : 2,
			"byteOffset" : 181680,
			"componentType" : 5126,
			"count" : 48,
			"max" : 
			[
				1,
				1,
				1,
				1
			],
			"min" : 
			[
				1,
				1,
				1,
				1
			],
			"name" : "accessor_color_m1-PolyGlass24_-686268",
			"type" : "VEC4"
		},
		{
			"bufferView" : 2,
			"byteOffset" : 182448,
			"componentType" : 5126,
			"count" : 8447,
			"max" : 
			[
				1,
				1,
				1,
				1
			],
			"min" : 
			[
				0,
				0.006584956776350737,
				0,
				1
			],
			"name" : "accessor_color_m2-PolyPaper23_-686274",
			"type" : "VEC4"
		},
		{
			"bufferView" : 2,
			"byteOffset" : 317600,
			"componentType" : 5126,
			"count" : 6727,
			"max" : 
			[
				1,
				1,
				1,
				1
			],
			"min" : 
			[
				0,
				0.006584956776350737,
				0,
				1
			],
			"name" : "accessor_color_m3-PolyPaper16_-686280",
			"type" : "VEC4"
		},
		{
			"bufferView" : 2,
			"byteOffset" : 425232,
			"componentType" : 5126,
			"count" : 1830,
			"max" : 
			[
				1,
				1,
				1,
				1
			],
			"min" : 
			[
				5.692175545846112e-05,
				0.006584956776350737,
				0,
				1
			],
			"name" : "accessor_color_m5-PolyPaper12_-686292",
			"type" : "VEC4"
		},
		{
			"bufferView" : 0,
			"byteOffset" : 0,
			"componentType" : 5123,
			"count" : 17331,
			"max" : 
			[
				11354
			],
			"min" : 
			[
				0
			],
			"name" : "accessor_indices_0_m0-PolyPaper21_-686262",
			"type" : "SCALAR"
		},
		{
			"bufferView" : 0,
			"byteOffset" : 34662,
			"componentType" : 5123,
			"count" : 72,
			"max" : 
			[
				47
			],
			"min" : 
			[
				0
			],
			"name" : "accessor_indices_0_m1-PolyGlass24_-686268",
			"type" : "SCALAR"
		},
		{
			"bufferView" : 0,
			"byteOffset" : 34806,
			"componentType" : 5123,
			"count" : 12417,
			"max" : 
			[
				8446
			],
			"min" : 
			[
				0
			],
			"name" : "accessor_indices_0_m2-PolyPaper23_-686274",
			"type" : "SCALAR"
		},
		{
			"bufferView" : 0,
			"byteOffset" : 59640,
			"componentType" : 5123,
			"count" : 10461,
			"max" : 
			[
				6726
			],
			"min" : 
			[
				0
			],
			"name" : "accessor_indices_0_m3-PolyPaper16_-686280",
			"type" : "SCALAR"
		},
		{
			"bufferView" : 0,
			"byteOffset" : 80562,
			"componentType" : 5123,
			"count" : 2772,
			"max" : 
			[
				1829
			],
			"min" : 
			[
				0
			],
			"name" : "accessor_indices_0_m5-PolyPaper12_-686292",
			"type" : "SCALAR"
		},
		{
			"bufferView" : 1,
			"byteOffset" : 136260,
			"componentType" : 5126,
			"count" : 11355,
			"max" : 
			[
				1,
				1,
				1
			],
			"min" : 
			[
				-1,
				-1,
				-1
			],
			"name" : "accessor_normal_m0-PolyPaper21_-686262",
			"type" : "VEC3"
		},
		{
			"bufferView" : 1,
			"byteOffset" : 273096,
			"componentType" : 5126,
			"count" : 48,
			"max" : 
			[
				1,
				1,
				1
			],
			"min" : 
			[
				-1,
				-1,
				-1
			],
			"name" : "accessor_normal_m1-PolyGlass24_-686268",
			"type" : "VEC3"
		},
		{
			"bufferView" : 1,
			"byteOffset" : 375036,
			"componentType" : 5126,
			"count" : 8447,
			"max" : 
			[
				1,
				1,
				1
			],
			"min" : 
			[
				-1,
				-1,
				-1
			],
			"name" : "accessor_normal_m2-PolyPaper23_-686274",
			"type" : "VEC3"
		},
		{
			"bufferView" : 1,
			"byteOffset" : 557124,
			"componentType" : 5126,
			"count" : 6727,
			"max" : 
			[
				1,
				1,
				1
			],
			"min" : 
			[
				-1,
				-1,
				-1
			],
			"name" : "accessor_normal_m3-PolyPaper16_-686280",
			"type" : "VEC3"
		},
		{
			"bufferView" : 1,
			"byteOffset" : 659808,
			"componentType" : 5126,
			"count" : 1830,
			"max" : 
			[
				1,
				1,
				1
			],
			"min" : 
			[
				-1,
				-1,
				-1
			],
			"name" : "accessor_normal_m5-PolyPaper12_-686292",
			"type" : "VEC3"
		},
		{
			"bufferView" : 1,
			"byteOffset" : 0,
			"componentType" : 5126,
			"count" : 11355,
			"max" : 
			[
				0.4100714,
				0.2150631,
				2.25657
			],
			"min" : 
			[
				-2.269931,
				-1.27994,
				-2.029997
			],
			"name" : "accessor_position_m0-PolyPaper21_-686262",
			"type" : "VEC3"
		},
		{
			"bufferView" : 1,
			"byteOffset" : 272520,
			"componentType" : 5126,
			"count" : 48,
			"max" : 
			[
				-0.04992923,
				0.1299152,
				2.039941
			],
			"min" : 
			[
				-1.02999,
				-0.6800848,
				1.290003
			],
			"name" : "accessor_position_m1-PolyGlass24_-686268",
			"type" : "VEC3"
		},
		{
			"bufferView" : 1,
			"byteOffset" : 273672,
			"componentType" : 5126,
			"count" : 8447,
			"max" : 
			[
				0.2999825,
				0.4099165,
				2.269941
			],
			"min" : 
			[
				-2.269992,
				-1.050674,
				-1.894753
			],
			"name" : "accessor_position_m2-PolyPaper23_-686274",
			"type" : "VEC3"
		},
		{
			"bufferView" : 1,
			"byteOffset" : 476400,
			"componentType" : 5126,
			"count" : 6727,
			"max" : 
			[
				0.30001,
				0.4099168,
				2.310776
			],
			"min" : 
			[
				-1.799991,
				-0.9906234,
				-1.885059
			],
			"name" : "accessor_position_m3-PolyPaper16_-686280",
			"type" : "VEC3"
		},
		{
			"bufferView" : 1,
			"byteOffset" : 637848,
			"componentType" : 5126,
			"count" : 1830,
			"max" : 
			[
				0.4100718,
				0.4100626,
				2.070003
			],
			"min" : 
			[
				-1.743071,
				-1.054937,
				-2.030059
			],
			"name" : "accessor_position_m5-PolyPaper12_-686292",
			"type" : "VEC3"
		}
	],
	"asset" : 
	{
		"copyright" : "Unknown",
		"generator" : "glTF 1-to-2 Upgrader for Google Blocks",
		"version" : "2.0"
	},
	"bufferViews" : 
	[
		{
			"buffer" : 0,
			"byteLength" : 86106,
			"byteOffset" : 0,
			"name" : "ushortBufferView",
			"target" : 34963
		},
		{
			"buffer" : 0,
			"byteLength" : 681768,
			"byteOffset" : 86106,
			"byteStride" : 12,
			"name" : "vec3BufferView",
			"target" : 34962
		},
		{
			"buffer" : 0,
			"byteLength" : 454512,
			"byteOffset" : 767874,
			"byteStride" : 16,
			"name" : "vec4BufferView",
			"target" : 34962
		}
	],
	"buffers" : 
	[
		{
			"byteLength" : 1222386,
			"name" : "model",
			"uri" : "model.bin"
		}
	],
	"materials" : 
	[
		{
			"alphaMode" : "OPAQUE",
			"doubleSided" : false,
			"name" : "BlocksPaper",
			"pbrMetallicRoughness" : 
			{
				"baseColorFactor" : 
				[
					1,
					1,
					1,
					1
				],
				"metallicFactor" : 0,
				"roughnessFactor" : 0.6
			}
		},
		{
			"alphaMode" : "BLEND",
			"doubleSided" : false,
			"name" : "BlocksGlass",
			"pbrMetallicRoughness" : 
			{
				"baseColorFactor" : 
				[
					0.2,
					0.2,
					1,
					0.3
				],
				"metallicFactor" : 1,
				"roughnessFactor" : 0.4
			}
		},
		{
			"alphaMode" : "OPAQUE",
			"doubleSided" : true,
			"name" : "BlocksGem",
			"pbrMetallicRoughness" : 
			{
				"baseColorFactor" : 
				[
					1,
					0.4,
					1,
					1
				],
				"metallicFactor" : 0,
				"roughnessFactor" : 0.1
			}
		}
	],
	"meshes" : 
	[
		{
			"name" : "mesh_m0-PolyPaper21_-686262",
			"primitives" : 
			[
				{
					"attributes" : 
					{
						"COLOR_0" : 0,
						"NORMAL" : 10,
						"POSITION" : 15
					},
					"indices" : 5,
					"material" : 0,
					"mode" : 4
				}
			]
		},
		{
			"name" : "mesh_m1-PolyGlass24_-686268",
			"primitives" : 
			[
				{
					"attributes" : 
					{
						"COLOR_0" : 1,
						"NORMAL" : 11,
						"POSITION" : 16
					},
					"indices" : 6,
					"material" : 1,
					"mode" : 4
				}
			]
		},
		{
			"name" : "mesh_m2-PolyPaper23_-686274",
			"primitives" : 
			[
				{
					"attributes" : 
					{
						"COLOR_0" : 2,
						"NORMAL" : 12,
						"POSITION" : 17
					},
					"indices" : 7,
					"material" : 0,
					"mode" : 4
				}
			]
		},
		{
			"name" : "mesh_m3-PolyPaper16_-686280",
			"primitives" : 
			[
				{
					"attributes" : 
					{
						"COLOR_0" : 3,
						"NORMAL" : 13,
						"POSITION" : 18
					},
					"indices" : 8,
					"material" : 0,
					"mode" : 4
				}
			]
		},
		{
			"name" : "mesh_m5-PolyPaper12_-686292",
			"primitives" : 
			[
				{
					"attributes" : 
					{
						"COLOR_0" : 4,
						"NORMAL" : 14,
						"POSITION" : 19
					},
					"indices" : 9,
					"material" : 0,
					"mode" : 4
				}
			]
		}
	],
	"nodes" : 
	[
		{
			"matrix" : 
			[
				1,
				0,
				0,
				0,
				0,
				1,
				0,
				0,
				0,
				0,
				1,
				0,
				0,
				0,
				0,
				1
			],
			"mesh" : 0,
			"name" : "node_MeshObject-118343680-PolyPaper21"
		},
		{
			"matrix" : 
			[
				1,
				0,
				0,
				0,
				0,
				1,
				0,
				0,
				0,
				0,
				1,
				0,
				0,
				0,
				0,
				1
			],
			"mesh" : 4,
			"name" : "node_MeshObject-1253753856-PolyPaper12"
		},
		{
			"matrix" : 
			[
				1,
				0,
				0,
				0,
				0,
				1,
				0,
				0,
				0,
				0,
				1,
				0,
				0,
				0,
				0,
				1
			],
			"mesh" : 2,
			"name" : "node_MeshObject1025814528-PolyPaper23"
		},
		{
			"matrix" : 
			[
				1,
				0,
				0,
				0,
				0,
				1,
				0,
				0,
				0,
				0,
				1,
				0,
				0,
				0,
				0,
				1
			],
			"mesh" : 3,
			"name" : "node_MeshObject1597893632-PolyPaper16"
		},
		{
			"matrix" : 
			[
				1,
				0,
				0,
				0,
				0,
				1,
				0,
				0,
				0,
				0,
				1,
				0,
				0,
				0,
				0,
				1
			],
			"mesh" : 1,
			"name" : "node_MeshObject453735424-PolyGlass24"
		}
	],
	"scene" : 0,
	"scenes" : 
	[
		{
			"extras" : {},
			"name" : "defaultScene",
			"nodes" : 
			[
				0,
				4,
				2,
				3,
				1
			]
		}
	]
}